<svg width="24" height="24" viewBox="0 0 24 24" fill="none" xmlns="http://www.w3.org/2000/svg">
<rect width="24" height="24" rx="2" fill="#4573FF"/>
<path d="M13.7805 16.5638L15.4742 19.5672L16.2927 19.0476L16.5799 18.053L14.7615 14.8246L13.7805 16.5638Z" fill="white"/>
<path d="M8.29799 4.67006L7.49854 5.3813L9.64488 9.18476L10.6232 7.44834L8.66385 3.97271L8.29799 4.67006Z" fill="white"/>
<path d="M10.1409 13.9659L7.75607 18.1973L8.05418 19.3225L8.78589 19.8531L12.2249 13.7492L13.2059 12.0073L17.0108 5.24493L16.3794 4.34477L16.1653 4.03082L15.2385 4.91154L10.1409 13.9659Z" fill="white"/>
<path d="M8.22219 3.18389L7.24115 4.92865H7.24387L4.23573 10.2796L4.23302 10.2768L3.2547 12.0188L8.22219 20.8537L9.20322 19.1145L5.21405 12.0216L9.20322 4.92865H12.0569L13.0379 3.18389H8.22219Z" fill="white"/>
<path d="M15.2276 4.93109L19.2141 12.0213L15.2276 19.1114H12.374L11.3956 20.8534H16.2087L17.1897 19.1114L20.1951 13.7632L21.1761 12.024L20.1978 10.2709L17.187 4.92831L16.2114 3.18356L15.2276 4.93109Z" fill="white"/>
</svg>
