<svg width="123" height="32" viewBox="0 0 123 32" fill="none" xmlns="http://www.w3.org/2000/svg">
<path d="M118.697 0.25H4.30507C2.11143 0.25 0.33313 1.92893 0.33313 4V28C0.33313 30.0711 2.11143 31.75 4.30507 31.75H118.697C120.891 31.75 122.669 30.0711 122.669 28V4C122.669 1.92893 120.891 0.25 118.697 0.25Z" stroke="#4573FF" stroke-width="0.5"/>
<path d="M9.86071 16.887V19H8.81424V13.313H11.119C11.701 13.2845 12.2731 13.4629 12.7226 13.813C12.9185 13.9767 13.0734 14.1794 13.1762 14.4064C13.2789 14.6335 13.327 14.8793 13.3168 15.126C13.3307 15.3702 13.2855 15.6141 13.1848 15.8393C13.084 16.0645 12.9303 16.2652 12.7353 16.426C12.2691 16.76 11.6915 16.925 11.1074 16.891L9.86071 16.887ZM9.86071 16.094H11.119C11.4242 16.1129 11.726 16.0246 11.9664 15.846C12.0676 15.7539 12.1463 15.642 12.197 15.5181C12.2477 15.3943 12.2691 15.2615 12.2598 15.129C12.2665 14.9936 12.2436 14.8583 12.1924 14.7317C12.1412 14.605 12.0628 14.4897 11.9621 14.393C11.7392 14.2007 11.4451 14.0991 11.1434 14.11H9.85648L9.86071 16.094ZM19.0375 16.305C19.0489 16.8092 18.9445 17.3097 18.7314 17.772C18.5481 18.1698 18.2435 18.5071 17.8565 18.741C17.4635 18.9699 17.009 19.0873 16.5473 19.079C16.0867 19.0861 15.6335 18.9684 15.2414 18.74C14.8528 18.5077 14.5449 18.1729 14.3559 17.777C14.1391 17.3246 14.0306 16.8326 14.0381 16.336V16.016C14.0274 15.5107 14.134 15.0093 14.3506 14.547C14.5363 14.1472 14.8428 13.808 15.2318 13.572C15.6234 13.3435 16.0764 13.2261 16.5367 13.234C16.9965 13.2261 17.4491 13.3419 17.8417 13.568C18.2289 13.7993 18.5348 14.1337 18.7208 14.529C18.9379 14.9877 19.0463 15.4857 19.0385 15.988L19.0375 16.305ZM17.991 16.005C18.0251 15.4969 17.8931 14.9911 17.6129 14.556C17.4933 14.3937 17.332 14.2627 17.1442 14.1753C16.9563 14.0878 16.7481 14.0468 16.5389 14.056C16.3321 14.0489 16.1267 14.091 15.9417 14.1784C15.7566 14.2657 15.5977 14.3956 15.4797 14.556C15.1981 14.9802 15.0616 15.476 15.0888 15.976V16.3C15.056 16.8091 15.191 17.3154 15.4754 17.749C15.5941 17.9131 15.7548 18.046 15.9426 18.1356C16.1304 18.2251 16.3392 18.2683 16.5495 18.261C16.7581 18.2702 16.9657 18.2291 17.1528 18.1417C17.34 18.0542 17.5005 17.9232 17.6192 17.761C17.8976 17.321 18.0273 16.8114 17.991 16.3V16.005ZM24.8058 17.591L25.7326 13.31H26.7706L25.382 19H24.3811L23.235 14.848L22.0625 19H21.0573L19.6624 13.313H20.7004L21.6357 17.586L22.7859 13.313H23.6629L24.8058 17.591ZM31.055 16.458H28.5828V18.208H31.4744V19H27.5364V13.313H31.4458V14.113H28.586V15.683H31.0603L31.055 16.458ZM34.5386 16.806H33.3735V19H32.3271V13.313H34.4454C35.0202 13.278 35.5898 13.434 36.0554 13.754C36.2475 13.9114 36.3986 14.1085 36.4969 14.33C36.5952 14.5515 36.638 14.7914 36.6221 15.031C36.6348 15.3705 36.5328 15.705 36.3308 15.986C36.124 16.2517 35.8421 16.4569 35.5173 16.578L36.8699 18.949V19H35.7493L34.5386 16.806ZM33.3735 16.013H34.4497C34.7491 16.0299 35.0443 15.9399 35.2769 15.761C35.3768 15.6737 35.4553 15.5668 35.5067 15.4477C35.5582 15.3287 35.5813 15.2004 35.5745 15.072C35.5831 14.9426 35.563 14.8129 35.5156 14.6912C35.4682 14.5695 35.3945 14.4584 35.2991 14.365C35.0707 14.1827 34.7768 14.0904 34.4783 14.107H33.3735V16.013ZM41.1352 16.458H38.662V18.208H41.5536V19H37.6145V13.313H41.525V14.113H38.6652V15.683H41.1352V16.458ZM42.4063 19V13.313H44.1857C44.6813 13.3042 45.1705 13.4202 45.6029 13.649C46.0122 13.8723 46.3435 14.2035 46.5561 14.602C46.7888 15.0405 46.9052 15.5257 46.8951 16.016V16.3C46.9064 16.7932 46.7893 17.2815 46.554 17.722C46.3363 18.1211 45.9979 18.45 45.5817 18.667C45.1392 18.8935 44.6423 19.0083 44.1391 19H42.4063ZM43.4527 14.109V18.209H44.1359C44.3717 18.2233 44.6078 18.1872 44.8268 18.1034C45.0457 18.0196 45.2418 17.8902 45.4006 17.725C45.7216 17.3235 45.8808 16.8272 45.8497 16.325V16.009C45.8866 15.5056 45.7368 15.0056 45.426 14.595C45.2735 14.4293 45.0825 14.299 44.8679 14.2143C44.6533 14.1297 44.4209 14.093 44.1889 14.107L43.4527 14.109ZM50.0514 19V13.313H52.1158C52.6653 13.2781 53.2118 13.414 53.6717 13.7C53.8514 13.8378 53.9934 14.0145 54.0856 14.215C54.1777 14.4155 54.2174 14.634 54.2013 14.852C54.2038 15.1014 54.1259 15.3455 53.9778 15.552C53.8151 15.7705 53.5878 15.9389 53.3243 16.036C53.6294 16.1043 53.8992 16.2722 54.0859 16.51C54.2676 16.7521 54.3613 17.0434 54.3528 17.34C54.3675 17.5707 54.326 17.8014 54.2317 18.0146C54.1373 18.2278 53.9925 18.4178 53.8084 18.57C53.3587 18.8826 52.8064 19.035 52.2492 19H50.0514ZM51.0979 16.434V18.211H52.263C52.539 18.2252 52.8108 18.143 53.0267 17.98C53.1203 17.8992 53.1938 17.7998 53.2418 17.689C53.2897 17.5781 53.3111 17.4586 53.3042 17.339C53.3203 17.2164 53.3066 17.0919 53.2641 16.9751C53.2216 16.8582 53.1514 16.752 53.0589 16.6646C52.9663 16.5773 52.8539 16.511 52.7301 16.4709C52.6063 16.4307 52.4745 16.4178 52.3446 16.433L51.0979 16.434ZM51.0979 15.707H52.1243C52.3967 15.7224 52.6664 15.6486 52.8879 15.498C52.9798 15.4267 53.0526 15.3359 53.1004 15.233C53.1483 15.1302 53.1698 15.0182 53.1633 14.906C53.1744 14.7928 53.1572 14.6787 53.113 14.5729C53.0689 14.4672 52.999 14.3727 52.9091 14.297C52.6736 14.155 52.3955 14.0894 52.1169 14.11H51.099L51.0979 15.707ZM57.1353 16.007L58.5217 13.307H59.6805L57.6606 16.906V19H56.6099V16.906L54.5869 13.312H55.752L57.1353 16.007Z" fill="#4573FF"/>
<path d="M71.613 19.285L73.0153 21.522L73.6932 21.135L73.9315 20.394L72.4243 17.989L71.613 19.285Z" fill="#4573FF"/>
<path d="M67.0712 10.424L66.4092 10.954L68.1897 13.785L69 12.491L67.3742 9.90503L67.0712 10.424Z" fill="#4573FF"/>
<path d="M68.6007 17.3499L66.6222 20.5029L66.869 21.3409L67.4748 21.7409L70.323 17.1939L71.1354 15.8939L74.2864 10.8559L73.7632 10.1849L73.5863 9.95093L72.8184 10.6069L68.6007 17.3499Z" fill="#4573FF"/>
<path d="M67.0077 9.31702L66.1953 10.617L63.7062 14.604L62.8938 15.904L67.0077 22.486L67.8201 21.186L64.5165 15.904L67.8201 10.617H70.1831L70.9955 9.31702H67.0077Z" fill="#4573FF"/>
<path d="M72.8098 10.619L76.1113 15.904L72.8098 21.186H70.4468L69.6365 22.486H73.6222L74.4346 21.186L76.9237 17.202L77.7361 15.902L76.9258 14.596L74.4325 10.617L73.6243 9.31702L72.8098 10.619Z" fill="#4573FF"/>
<path fill-rule="evenodd" clip-rule="evenodd" d="M84.7131 13.541L83.2079 15.565L81.6965 13.541H80.4911L82.5936 16.26L80.3852 19.105H81.5821L83.2069 16.96L84.8147 19.104H86.0116L83.8053 16.26L85.9036 13.543L84.7131 13.541Z" fill="#4573FF"/>
<path fill-rule="evenodd" clip-rule="evenodd" d="M89.2707 14.271C89.4598 14.2602 89.649 14.2894 89.8246 14.3566C90.0002 14.4237 90.1576 14.527 90.2854 14.659C90.5325 14.9672 90.6586 15.3468 90.6424 15.733H87.7296C87.7614 15.3414 87.9255 14.9699 88.1978 14.673C88.3364 14.5384 88.5038 14.4331 88.6888 14.3642C88.8737 14.2952 89.0721 14.2641 89.2707 14.273V14.271ZM89.2813 13.444C88.9152 13.431 88.5506 13.4963 88.2148 13.6348C87.879 13.7733 87.5807 13.9815 87.342 14.244C86.8376 14.8479 86.5824 15.604 86.6238 16.372C86.6013 16.7501 86.6583 17.1288 86.7913 17.4861C86.9244 17.8434 87.1309 18.1723 87.3992 18.454C87.678 18.7109 88.0102 18.9106 88.3747 19.0404C88.7393 19.1701 89.1284 19.2272 89.5175 19.208C89.8638 19.2126 90.2098 19.1848 90.5502 19.125C90.8615 19.0617 91.1655 18.9699 91.458 18.851L91.5046 18.833V17.948L91.3986 17.99C90.814 18.2248 90.1857 18.3472 89.5504 18.35C89.3042 18.3641 89.0576 18.3294 88.8264 18.2481C88.5953 18.1668 88.3848 18.0408 88.2084 17.878C87.8769 17.5055 87.6993 17.0324 87.7084 16.546H91.7566V15.956C91.7878 15.2934 91.5507 14.6445 91.0936 14.141C90.8635 13.909 90.583 13.7269 90.2712 13.6071C89.9595 13.4873 89.6239 13.4327 89.2877 13.447" fill="#4573FF"/>
<path fill-rule="evenodd" clip-rule="evenodd" d="M95.9721 13.442C95.5812 13.4372 95.194 13.5148 94.8388 13.669C94.5529 13.7926 94.3037 13.9808 94.1133 14.217L93.9809 13.54H93.1166V19.104H94.1599V16.189C94.1097 15.6677 94.2551 15.1463 94.5708 14.716C94.7406 14.5596 94.9442 14.4398 95.1676 14.3645C95.3909 14.2893 95.6289 14.2604 95.8652 14.28C96.0398 14.265 96.2159 14.2839 96.3826 14.3354C96.5492 14.387 96.7029 14.4702 96.8343 14.58C97.06 14.8456 97.1699 15.1825 97.1415 15.522V19.1H98.1848V15.497C98.2108 15.214 98.1744 14.9291 98.078 14.6601C97.9816 14.3911 97.8271 14.1438 97.6245 13.934C97.1604 13.5775 96.5699 13.4016 95.9732 13.442" fill="#4573FF"/>
<path fill-rule="evenodd" clip-rule="evenodd" d="M102.159 18.375C101.938 18.3888 101.717 18.3503 101.516 18.263C101.315 18.1757 101.14 18.0423 101.007 17.875C100.709 17.4176 100.57 16.8838 100.609 16.348C100.575 15.8061 100.715 15.2672 101.012 14.802C101.137 14.6286 101.307 14.4886 101.506 14.3956C101.705 14.3026 101.926 14.2596 102.148 14.271C102.384 14.2506 102.621 14.282 102.842 14.3627C103.062 14.4433 103.26 14.5711 103.419 14.736C103.73 15.2152 103.87 15.7761 103.819 16.336V16.509C103.865 17.0147 103.726 17.5201 103.426 17.941C103.262 18.0964 103.063 18.2157 102.845 18.2903C102.626 18.365 102.393 18.3932 102.162 18.373L102.159 18.375ZM103.815 13.546L103.837 13.929L103.86 14.175C103.622 13.9402 103.337 13.7539 103.02 13.6276C102.703 13.5014 102.362 13.438 102.018 13.4413C101.675 13.4445 101.335 13.5145 101.021 13.6467C100.707 13.779 100.425 13.9707 100.193 14.21C99.719 14.8259 99.4865 15.5781 99.5352 16.338C99.4841 17.0946 99.7166 17.844 100.192 18.455C100.419 18.7059 100.705 18.9042 101.026 19.0348C101.347 19.1653 101.696 19.2246 102.045 19.208C102.394 19.2266 102.743 19.1667 103.062 19.0334C103.382 18.9 103.663 18.697 103.883 18.441L103.989 19.109H104.855V11.265H103.812L103.815 13.546Z" fill="#4573FF"/>
<path fill-rule="evenodd" clip-rule="evenodd" d="M107.119 11.527C106.963 11.5238 106.811 11.5775 106.695 11.677C106.634 11.7386 106.586 11.8117 106.556 11.8916C106.526 11.9715 106.515 12.0565 106.522 12.141C106.515 12.2252 106.527 12.3098 106.557 12.3894C106.587 12.4691 106.633 12.5421 106.694 12.604C106.811 12.7024 106.962 12.7568 107.118 12.7568C107.274 12.7568 107.425 12.7024 107.542 12.604C107.605 12.5431 107.653 12.4702 107.684 12.3902C107.715 12.3102 107.727 12.2249 107.721 12.14C107.727 12.0557 107.715 11.971 107.684 11.8915C107.653 11.8121 107.605 11.7397 107.543 11.679C107.427 11.5788 107.276 11.5243 107.119 11.527" fill="#4573FF"/>
<path fill-rule="evenodd" clip-rule="evenodd" d="M106.596 19.105H107.639V13.541H106.596V19.105Z" fill="#4573FF"/>
<path fill-rule="evenodd" clip-rule="evenodd" d="M112.137 18.289C112.026 18.3169 111.913 18.3386 111.798 18.354C111.652 18.375 111.503 18.3853 111.355 18.385C111.237 18.3915 111.119 18.3735 111.009 18.3322C110.899 18.2909 110.8 18.2273 110.719 18.146C110.551 17.9468 110.468 17.6952 110.486 17.441V14.32H112.192V13.541H110.483V12.282H109.835L109.453 13.459L108.598 13.806V14.318H109.445V17.474C109.408 17.7051 109.428 17.9411 109.503 18.1637C109.579 18.3863 109.708 18.5893 109.881 18.7567C110.054 18.9241 110.265 19.0515 110.499 19.1288C110.732 19.206 110.982 19.2311 111.228 19.202C111.401 19.2002 111.575 19.1859 111.747 19.159C111.9 19.1409 112.051 19.1033 112.194 19.047L112.237 19.028V18.262L112.137 18.289Z" fill="#4573FF"/>
</svg>
