<svg width="32" height="31" viewBox="0 0 32 31" fill="none" xmlns="http://www.w3.org/2000/svg">
<path d="M18.6855 23.0826L21.6213 28.0422L23.0398 27.1843L23.5377 25.5418L20.3859 20.2104L18.6855 23.0826Z" fill="white"/>
<path d="M9.18291 3.44115L7.79724 4.61569L11.5174 10.8967L13.2131 8.0292L9.81704 2.28955L9.18291 3.44115Z" fill="white"/>
<path d="M12.3772 18.7926L8.24367 25.7802L8.76036 27.6384L10.0286 28.5147L15.9893 18.4347L17.6897 15.558L24.2846 4.39072L23.1901 2.90419L22.8191 2.38574L21.2126 3.84015L12.3772 18.7926Z" fill="white"/>
<path d="M9.05158 0.98645L7.3512 3.86774H7.35589L2.14201 12.7043L2.13731 12.6997L0.44162 15.5764L9.05158 30.1664L10.752 27.2943L3.83769 15.581L10.752 3.86774H15.6981L17.3985 0.98645H9.05158Z" fill="white"/>
<path d="M21.194 3.87233L28.1036 15.581L21.194 27.2897H16.2478L14.5521 30.1664H22.8944L24.5947 27.2897L29.8039 18.4577L31.5043 15.5856L29.8086 12.6906L24.59 3.86774L22.8991 0.98645L21.194 3.87233Z" fill="white"/>
</svg>
