<svg width="200" height="160" viewBox="0 0 200 160" fill="none" xmlns="http://www.w3.org/2000/svg">
<path d="M112.685 82.9788C112.685 82.9788 113.838 80.3562 115.399 80.8695C116.96 81.3828 118.345 88.2238 112.84 87.8652L112.685 82.9788Z" fill="#F4A28C"/>
<path d="M150.975 26.6969H62.3866V101.927H150.975V26.6969Z" fill="#24285B"/>
<path d="M83.5706 75.2097H70.8236V78.3947H83.5706V75.2097Z" fill="white"/>
<path d="M83.5706 88.5683H70.8236V91.7533H83.5706V88.5683Z" fill="white"/>
<path d="M83.5706 69.5851H70.8236V72.77H83.5706V69.5851Z" fill="white"/>
<path d="M69.5933 33.5589C70.4204 33.5589 71.0909 32.8885 71.0909 32.0614C71.0909 31.2343 70.4204 30.5638 69.5933 30.5638C68.7662 30.5638 68.0957 31.2343 68.0957 32.0614C68.0957 32.8885 68.7662 33.5589 69.5933 33.5589Z" fill="white"/>
<path d="M74.0509 33.5589C74.878 33.5589 75.5485 32.8885 75.5485 32.0614C75.5485 31.2343 74.878 30.5638 74.0509 30.5638C73.2238 30.5638 72.5533 31.2343 72.5533 32.0614C72.5533 32.8885 73.2238 33.5589 74.0509 33.5589Z" fill="#4573FF"/>
<path d="M78.2623 33.5589C79.0894 33.5589 79.7599 32.8885 79.7599 32.0614C79.7599 31.2343 79.0894 30.5638 78.2623 30.5638C77.4352 30.5638 76.7647 31.2343 76.7647 32.0614C76.7647 32.8885 77.4352 33.5589 78.2623 33.5589Z" fill="#FFD200"/>
<path d="M146.757 36.54H72.9329V44.977H146.757V36.54Z" fill="white"/>
<path d="M115.913 49.1956H103.166V52.3806H115.913V49.1956Z" fill="white"/>
<path d="M124.258 54.8203H96.1346V58.3357H124.258V54.8203Z" fill="white"/>
<path d="M91.9162 80.1314H70.8236V87.1622H91.9162V80.1314Z" fill="white"/>
<path d="M115.118 80.1314H94.0255V87.1622H115.118V80.1314Z" fill="white"/>
<path d="M103.039 75.8496L99.8258 93.1315H111.539L109.465 75.8496H103.039Z" fill="#F4A28C"/>
<path d="M98.8275 60.5224C98.8275 60.5224 96.3456 78.3948 104.769 79.9979C113.192 81.6009 114.345 60.5224 114.345 60.5224C114.345 60.5224 115.702 54.0751 111.04 49.8847C106.379 45.6943 96.6761 49.8566 98.8275 60.5224Z" fill="#F4A28C"/>
<path d="M98.6448 63.9957L97.78 61.6333C97.1511 59.9173 96.4089 58.2449 95.5582 56.6273C94.0606 53.7728 91.9092 48.0708 96.2191 44.6749C102.139 40.0064 104.115 45.9404 107.883 41.5391C111.652 37.1378 116.862 43.0578 117.579 45.392C118.296 47.7263 123.323 49.3434 121.706 54.1876C120.089 59.0319 120.04 64.1011 114.246 63.2574C108.453 62.4137 102.202 57.7663 102.202 57.7663C102.202 57.7663 100.536 60.3396 98.6448 63.9957Z" fill="#FFD200"/>
<path d="M102.469 70.9421C104.244 70.9421 105.682 69.5035 105.682 67.729C105.682 65.9544 104.244 64.5159 102.469 64.5159C100.695 64.5159 99.2563 65.9544 99.2563 67.729C99.2563 69.5035 100.695 70.9421 102.469 70.9421Z" fill="white"/>
<path d="M109.55 71.2232C111.324 71.2232 112.763 69.7847 112.763 68.0101C112.763 66.2356 111.324 64.797 109.55 64.797C107.775 64.797 106.336 66.2356 106.336 68.0101C106.336 69.7847 107.775 71.2232 109.55 71.2232Z" fill="white"/>
<path d="M72.8836 154.356C72.8836 154.356 48.1421 97.7085 99.8259 93.1314H111.539C111.539 93.1314 161.079 100.268 136.428 153.161L72.8836 154.356Z" fill="#4573FF"/>
<path opacity="0.08" d="M83.0713 120.214H74.3952L81.0253 146.102L79.5207 154.356L90.8334 153.997L93.6808 130.121L83.0713 120.214Z" fill="black"/>
<path d="M98.6449 63.9957C98.6449 63.9957 97.4918 61.3732 95.9309 61.8864C94.3701 62.3997 93.5264 69.6203 99.0386 69.2758L98.6449 63.9957Z" fill="#F4A28C"/>
<path d="M88.7243 144.745L81.588 113.767H130.832L122.824 147.178L122.128 153.794H90.025L88.7243 144.745Z" fill="#FFD200"/>
<path d="M106.646 132.715C109.003 132.715 110.914 130.804 110.914 128.447C110.914 126.09 109.003 124.18 106.646 124.18C104.289 124.18 102.378 126.09 102.378 128.447C102.378 130.804 104.289 132.715 106.646 132.715Z" fill="white"/>
<path opacity="0.08" d="M102.462 78.9853C102.462 78.9853 105.978 81.0946 108.79 78.8166C108.79 78.8166 108.987 84.153 101.759 82.782L102.462 78.9853Z" fill="black"/>
<path opacity="0.12" d="M76.0967 127.941C76.0967 127.941 36.6235 125.129 32.1539 62.5543C27.9355 3.49513 111.42 -8.16853 158.709 22.8158" stroke="black" stroke-width="2" stroke-linecap="round" stroke-linejoin="round" stroke-dasharray="2 10"/>
<path d="M167.146 21.7753H139.726V49.1957H167.146V21.7753Z" fill="#00CF99"/>
<path d="M148.163 35.2159L151.267 40.7587L158.709 30.2124" stroke="white" stroke-width="5" stroke-linecap="round" stroke-linejoin="round"/>
</svg>
